<mxfile host="app.diagrams.net" agent="Mozilla/5.0 (Windows NT 10.0; Win64; x64) AppleWebKit/537.36 (KHTML, like Gecko) Chrome/127.0.0.0 Safari/537.36" version="24.7.5">
  <diagram id="ZZtSZ3jO-iEl10flEdHb" name="페이지-1">
    <mxGraphModel dx="1434" dy="746" grid="1" gridSize="10" guides="1" tooltips="1" connect="1" arrows="1" fold="1" page="1" pageScale="1" pageWidth="827" pageHeight="1169" math="0" shadow="0">
      <root>
        <mxCell id="0" />
        <mxCell id="1" parent="0" />
        <mxCell id="A7sKQJCQrOc_YvX3gsob-3" style="edgeStyle=orthogonalEdgeStyle;rounded=0;orthogonalLoop=1;jettySize=auto;html=1;exitX=0.5;exitY=0;exitDx=0;exitDy=0;" edge="1" parent="1" source="LNLuHS1_VjobmUFHNVjf-4" target="YX2rQ0Zm5bxFWOcHUKYA-2">
          <mxGeometry relative="1" as="geometry" />
        </mxCell>
        <mxCell id="A7sKQJCQrOc_YvX3gsob-4" style="edgeStyle=orthogonalEdgeStyle;rounded=0;orthogonalLoop=1;jettySize=auto;html=1;exitX=1;exitY=0.5;exitDx=0;exitDy=0;entryX=0;entryY=0.5;entryDx=0;entryDy=0;" edge="1" parent="1" source="LNLuHS1_VjobmUFHNVjf-4" target="LNLuHS1_VjobmUFHNVjf-7">
          <mxGeometry relative="1" as="geometry" />
        </mxCell>
        <mxCell id="LNLuHS1_VjobmUFHNVjf-4" value="" style="shape=image;verticalLabelPosition=bottom;labelBackgroundColor=default;verticalAlign=top;aspect=fixed;imageAspect=0;image=data:image/svg+xml,PHN2ZyB4bWxucz0iaHR0cDovL3d3dy53My5vcmcvMjAwMC9zdmciIGZpbGw9Im5vbmUiIHZpZXdCb3g9IjAgMCAyNTYgMjU2IiBoZWlnaHQ9IjI1NiIgd2lkdGg9IjI1NiI+JiN4YTs8cmVjdCBmaWxsPSIjRjRGMkVEIiByeD0iNjAiIGhlaWdodD0iMjU2IiB3aWR0aD0iMjU2Ii8+JiN4YTs8cGF0aCBmaWxsPSJibGFjayIgZD0iTTg5Ljc3NzggMTkzLjkyNkM4Mi41Mzk3IDE4OC4yMzMgNzQuODE4NyAxODIuNzc1IDY5LjU0MjYgMTc1LjA4OUM1OC40NDA5IDE2MS41MzUgNDkuODkzIDE0NS44NDIgNDQuMDQ5NCAxMjkuMzUyQzQwLjUxNzMgMTE4LjYyOCAzOS4zMDc2IDEwNy4xMzIgMzQuNzU0MyA5Ni44MjI5QzI5Ljk5MTEgODkuMzM1NSAzNS41NzA1IDgxLjE1MDYgNDMuNzcyIDc4Ljc3MDZDNDcuNDIzNSA3OC4wNjk4IDUzLjg0MzkgNzQuNjI1NiA0Ni4wOTM4IDc3LjA4NzNDMzkuMTQ1NiA4Mi4xODUxIDM4LjQ3MzIgNzIuNDYgNDUuNTk4IDcxLjg0NDFDNTAuNDYwNCA3MS4xOTc4IDUyLjI1MDMgNjcuMjE3MyA1MC41ODc1IDYzLjYzNEM0NS4zNjggNjAuMjMwMyA2My4yNDQxIDU2LjQ4OTUgNTQuMjQ5NiA1MS40MTA3QzQ0Ljg3OTcgNDEuMzAxNyA2Ny4zNTYgMzkuMzU1NyA2MS44MTA3IDUwLjgzNjVDNjAuNDgzNCA1OS42NjQ3IDc3LjUxNjEgNDkuMjE4NCA3My41NjQxIDU5LjQxMzFDNzcuNTgwOSA2NC4zMDg5IDg4LjYwNTkgNjAuNTI3NCA4OC4zMzI0IDY3LjM5NThDOTQuMTgzOCA2Ny43OTggOTYuMTkyIDcyLjcyMTQgMTAxLjY4NSA3My4wOTkzQzEwNy4zNzggNzUuNjcwMiAxMTcuNjk4IDc3LjY5NjEgMTE5LjYzNSA4NC4xMTEzQzExMy45ODcgODguNTgyOCAxMDAuOTA5IDc0Ljg3NSAxMDAuMjggODcuMjUyNUMxMDEuOTg2IDEwNS41MzcgMTAxLjU1MiAxMjQuMzczIDEwOC4yNDIgMTQxLjc4NUMxMTEuNDA2IDE1Mi4zMjggMTE5LjA3NyAxNjAuNjI4IDEyNi4wMDQgMTY4LjgzOUMxMzIuNjMzIDE3Ni44ODEgMTQxLjYxMSAxODIuNTQzIDE1MC43NjIgMTg3LjMxQzE1OC43OSAxOTEuMDk2IDE2Ny40NDQgMTkzLjYwNyAxNzYuMTkzIDE5NS4xODJDMTc5Ljc0MSAxOTIuNDY4IDE4Ni4wMDYgMTgyLjM3OCAxOTEuNTQyIDE4Ni42MzNDMTkxLjgwNCAxOTEuNDE0IDE4MC41NTUgMTk2LjYyNyAxOTEuMDEyIDE5Ni4wOThDMTk3LjE1MyAxOTQuMjQ2IDIwMS40MTIgMjAwLjg0OCAyMDYuNDY5IDE5NC44OTNDMjExLjEyOCAyMDAuNDExIDIyNS44MzMgMTkxLjM2NyAyMjIuNTE4IDIwMi42NDdDMjE4LjAzNiAyMDUuNTM5IDIxMS40OTggMjAzLjc5MSAyMDcuMDA5IDIwNy43NjlDMTk5LjYwNiAyMDQuMDcyIDE5My43MTMgMjExLjA3OCAxODUuNTE4IDIxMC4xOTJDMTc2LjQxNyAyMTEuODIyIDE2Ny4xNTggMjEyLjQ4IDE1Ny45MzEgMjEyLjQ5NEMxNDIuNzk0IDIxMS4yOTggMTI3LjMzNiAyMTAuNzk0IDExMi45MzYgMjA1LjUyNEMxMDQuODI0IDIwMy4xNjcgOTYuOTA3NSAxOTguNTQ3IDg5Ljc3NzggMTkzLjkyNlYxOTMuOTI2Wk0xMDIuNTYyIDE5OS40NjVDMTEwLjQ4MyAyMDIuODkxIDExOC4yMjkgMjA2LjUwMSAxMjYuOTEgMjA3LjU5QzE0MC42ODMgMjA5LjUwNiAxNTQuOTA2IDIxMi40NTIgMTY4LjcyOCAyMDkuNzY1QzE2Mi40NzIgMjA2Ljk0IDE1Ni4wMDUgMjEwLjg2NSAxNDkuNzcyIDIwNy43NDVDMTQyLjI5OCAyMDkuMzUzIDEzNC4yNzYgMjA3LjMzNSAxMjYuNjc4IDIwNi4zNDFDMTE4LjAzNiAyMDIuNDkyIDEwOC43MTEgMTk5Ljg0NiAxMDAuNjE5IDE5NC44NDlDOTAuNTA3NCAxOTEuMTU2IDEwNS44NDggMTk5LjU4NiAxMDguNTc5IDIwMC4yNjhDMTE0LjkgMjAzLjg1NiAxMDEuNjI4IDE5OC40MjkgOTkuNzU2OSAxOTYuOTM4Qzk0LjQ2MjcgMTkzLjk2OCA5My43ODggMTk0LjU4OSA5OS4yMzI3IDE5Ny42MDVDMTAwLjMyOSAxOTguMjQ2IDEwMS40MTMgMTk4LjkxOSAxMDIuNTYyIDE5OS40NjVWMTk5LjQ2NVpNODcuNDg5MSAxODguODEzQzk1LjE2NSAxOTEuNjU3IDg3LjQ1NTIgMTgzLjQxNiA4My45Mzc4IDE4My44OTRDODIuMzc5NCAxODEuMTkxIDc3Ljk4MzggMTc5LjQ4MyA4MS4wODQ1IDE3OC4wM0M3NS41MDcgMTc5Ljk2NyA3NS4yNDE4IDE3MC42NjcgNzIuNjIwMSAxNzEuOTk2QzY2LjcxOTYgMTcwLjEzMyA3MC4zMjM2IDE2My41MzIgNjMuMjk1MSAxNTkuNDc5QzYyLjY1MzUgMTU1LjIwOCA1Ni4zMTE5IDE1MS41MDQgNTQuMjg5MiAxNDUuMDYyQzUzLjM5NTkgMTQxLjc2NCA0Ny4xMjQ2IDEzMi4yOTIgNTAuOTc3IDE0MS4xMDdDNTQuMjU3MiAxNDkuNTkzIDYwLjAyODQgMTU2Ljg2IDY0LjgzMTIgMTY0LjExOEM2OC41NjA1IDE3MS4wMjkgNzIuOTY0MSAxNzguMjUyIDc5Ljc1NTkgMTgyLjU2NEM4Mi4wNDU0IDE4NC43NiA4NC4yNTU5IDE4OC4xMjUgODcuNDg5MSAxODguODEzWk02NS4zNzYzIDE2NC41MzVDNjUuNjQ0MiAxNjMuMzc2IDY2Ljc4MDEgMTY3LjA0NCA2NS4zNzYzIDE2NC41MzVWMTY0LjUzNVpNOTYuNjgxNyAxOTIuMjIyQzk4LjM4MTUgMTkxLjQ2MSA5NC4yMzc1IDE5MS4yNjMgOTYuNjgxNyAxOTIuMjIyVjE5Mi4yMjJaTTEwMC44NDkgMTkzLjc0MkMxMDAuNDE3IDE5MS42NDMgOTguOTQ2NCAxOTQuOTE1IDEwMC44NDkgMTkzLjc0MlYxOTMuNzQyWk0xMDYuMDY0IDE5NS45MTdDMTA4LjU0NyAxOTMuNTUzIDEwMi4yMzcgMTk0LjQyNyAxMDYuMDY0IDE5NS45MTdWMTk1LjkxN1pNMTE1LjAwNCAyMDAuOUMxMTYuNTEzIDE5OC42NjkgMTEwLjE3NCAyMDAuMDU4IDExNS4wMDQgMjAwLjlWMjAwLjlaTTk3LjgzNzYgMTg4LjkzM0MxMDEuNjk0IDE4Ni40MzggOTIuODU2MSAxODguODk5IDk3LjgzNzYgMTg4LjkzM1YxODguOTMzWk0xMDEuNzUgMTkwLjg4NEMxMDEuNjQxIDE4OS41NjUgMTAwLjM1NiAxOTEuNDc1IDEwMS43NSAxOTAuODg0VjE5MC44ODRaTTEyMS4zMDYgMjAzLjA5QzEyNC40NDkgMjA1LjA3NCAxMzkuNjYzIDIwNy40MzggMTMwLjEzNyAyMDMuOTAzQzEyOC41NDMgMjA0LjIzOSAxMTIuNDcyIDE5OS4zNTggMTIxLjMwNiAyMDMuMDlaTTkwLjI2MDkgMTc4LjkxMUM4OS45NTUyIDE3Ny41ODggODUuMzgxMyAxNzcuNDUxIDkwLjI2MDkgMTc4LjkxMVYxNzguOTExWk05OS4zNjQ2IDE4NC4yMTdDMTAxLjczNCAxODIuNTY1IDk0LjQ0NzEgMTgyLjk0MiA5OS4zNjQ2IDE4NC4yMTdWMTg0LjIxN1pNMTA3LjAyMiAxODguOTEyQzExMC40MjIgMTg3LjYzIDEwMS41MDcgMTg3LjYyNCAxMDcuMDIyIDE4OC45MTJWMTg4LjkxMlpNODYuNTU2NCAxNzQuODc3QzkwLjI0NTMgMTc3LjcwNiAxMDEuNDMzIDE3NS4yMzkgOTIuMjA1NyAxNzMuMTg4Qzg4LjAwNTggMTcwLjk0OSA3OC41NDAyIDE2OS40MTcgODQuOTkyMiAxNzQuNTM4TDg2LjU1NjQgMTc0Ljg3N0w4Ni41NTY0IDE3NC44NzdaTTExMi4yMDkgMTkwLjUzM0MxMTMuNzQ1IDE4Ny45MTUgMTA1Ljc2NSAxODkuMDM4IDExMi4yMDkgMTkwLjUzM1YxOTAuNTMzWk0xMDQuNDE0IDE4NC4zMzhDMTEzLjQzNCAxODYuODkgOTYuODI4NiAxNzguNjM0IDEwMi4xODggMTgzLjM5OUwxMDMuMzc2IDE4My45MzdMMTA0LjQxNCAxODQuMzM4TDEwNC40MTQgMTg0LjMzOFpNMTIwLjA0MiAxOTMuMzcxQzEyOC41ODUgMTkzLjQ1MyAxMTIuMzI2IDE5Mi4xOTMgMTIwLjA0MiAxOTMuMzcxVjE5My4zNzFaTTgzLjI2OTUgMTY5LjkzNEM4Mi45MzU5IDE2OC4zNDMgODEuMTYxNCAxNzAuMDY4IDgzLjI2OTUgMTY5LjkzNFYxNjkuOTM0Wk0xMzQuNDkyIDIwMS40NzdDMTM0LjcyIDE5OC42MDMgMTMxLjcwNSAyMDMuNjE1IDEzNC40OTIgMjAxLjQ3N1YyMDEuNDc3Wk05Ny44NDc4IDE3OC44NjJDOTcuMzMxMSAxNzcuMzQ5IDk1LjE3ODYgMTc4LjggOTcuODQ3OCAxNzguODYyVjE3OC44NjJaTTg0LjA3OTcgMTY4LjkzNkM4OC45ODQgMTY4LjY0MSA3Ny4zNjUzIDE2Ni43NzUgODQuMDc5NyAxNjguOTM2VjE2OC45MzZaTTY3Ljc2OTUgMTU4LjM5M0M2Ny4xNTkxIDE1Ni4wNDIgNjIuNDMyOCAxNTQuMTY3IDY3Ljc2OTUgMTU4LjM5M1YxNTguMzkzWk0xMTAuNTg4IDE4NS41NjdDMTA5LjY4OSAxODQuNTQyIDExMC4xNjUgMTg1Ljc5MSAxMTAuNTg4IDE4NS41NjdWMTg1LjU2N1pNMTM3LjIzOSAyMDEuOTIyQzEzNy4xNTQgMjAwLjM1NiAxMzUuNzg4IDIwMi41MTQgMTM3LjIzOSAyMDEuOTIyVjIwMS45MjJaTTEwOC4yMjkgMTgzLjEzMUMxMDguNzA5IDE4MS4xMTQgMTA0LjA0NyAxODIuNTIgMTA4LjIyOSAxODMuMTMxVjE4My4xMzFaTTg4LjM3NCAxNzAuNTQ4QzkyLjAyMjYgMTcwLjE1NyA4Mi41MjkyIDE2OC4wODEgODguMzc0IDE3MC41NDhWMTcwLjU0OFpNMTIxLjk2IDE5MS40MThDMTI3LjY0NiAxODkuMTY1IDExNi40MTkgMTkwLjMxOCAxMjEuOTYgMTkxLjQxOFYxOTEuNDE4Wk0xMDQuNDkgMTc5LjU1OUMxMTEuMDQzIDE4MC40MDQgOTYuNjkzNCAxNzUuMTAyIDEwMy4wNTIgMTc5LjA4NEwxMDQuNDkgMTc5LjU1OUwxMDQuNDkgMTc5LjU1OVYxNzkuNTU5Wk0xMjcuMjY0IDE5My41NjJDMTMzLjM4MiAxODkuOTA0IDEzMS4zNjUgMjAyLjEyNiAxMzcuNjQ0IDE5NC41OTRDMTQzLjgzNyAxOTAuMDcyIDEzMi4yOTUgMjAwLjE4NSAxMzkuOTI4IDE5NS40MDFDMTQ1LjQ0OCAxOTEuNzA5IDE1My42MDEgMTk3LjE1MSAxNTguNzUyIDE5OC45MjZDMTYyLjQ1NiAxOTguNzQ0IDE2Ni4wNTYgMjAyLjEyOSAxNjkuODU0IDIwMC4wN0MxNzcuMTYzIDE5OC4xMDEgMTU1LjU2IDE5Ny4xNSAxNjEuMjIzIDE5My42NTdDMTU0LjUzNCAxOTUuNjAzIDE0OS41OTMgMTkxLjMzNiAxNDYuMzAyIDE4Ny4wNTJDMTM4Ljc5OSAxODUuMzE5IDEzMC4xMjUgMTgxLjQ4NCAxMjYuMzgxIDE3NC44NDVDMTI0Ljg1NCAxNzIuMzUyIDEyOC41ODYgMTc1LjE5NiAxMjUuMDYzIDE3MS4xMjFDMTIwLjU0MiAxNjcuMSAxMTguMjg1IDE2Mi41MzYgMTE1LjI1IDE1Ny42NDhDMTExLjYyNCAxNTUuNzE0IDExMS4yMDIgMTUwLjAyMSAxMTAuODM2IDE1Ny40NTdDMTEwLjg2NCAxNTIuNzY0IDEwNi40NTggMTQ5LjYwNSAxMDUuMzgzIDE1MC45MThDMTA1LjM2NCAxNDYuMzk5IDExMC4wOTggMTQ4LjY2NCAxMDYuNzg0IDE0NS4zMkMxMDYuMDcxIDE0MC42MzYgMTAzLjcyMiAxMzUuNzU0IDEwMy4wMTYgMTMwLjQ2NUMxMDEuOTE5IDEyNy45MTYgMTAyLjg2MSAxMjIuNDU2IDk5LjI3MTkgMTI4LjIyN0M5Ny45NjQzIDEzNC4zMjcgOTguODM3OSAxMjAuNzMyIDEwMC44NzEgMTI1LjIxNUMxMDMuNTQxIDEyMC42NCA5OS45MTMyIDEyMS4xNzggOTkuNzY0NiAxMjEuODEzQzEwMS41MDMgMTE3Ljk1NCAxMDAuODY1IDExMi40NzkgOTkuMzExIDExNC41NjdDMTAwLjIzNyAxMTAuNDc2IDEwMC43NzUgOTkuNTExNiA5Ny45MjQzIDEwMS40NTVDOTkuNjUyMSA5Ny4xNzY4IDEwMS4yMDEgODEuODggOTMuNzAwNSA4Ny43MTIyQzkwLjY2MDcgODcuNzU0OSA4NS4zOTY2IDg4LjgxNTYgODIuOTA4MyA5MC4wNTMxQzkwLjcxMDIgOTQuMzUzOCA4Mi4xMjM1IDkxLjYwNjMgNzguOTQ3NiA5MC45MjI3Qzc4LjUzMzggOTQuOTAyMSA3NS4zODgxIDkzLjE4MSA3MS40NTgyIDkzLjIyQzc3LjczNTIgOTMuOTk2NiA2OC40MDE2IDk5LjYzOTggNjQuODAwNyA5Ny40NDc4QzYwLjEyNDEgOTkuNjgyOSA2OC44MzY3IDEwNS4yNjIgNjQuODk0NSAxMDYuOTg3QzY1LjM3OSAxMDkuNTg4IDU3LjczIDEwNi4wNDggNTguMzMwNyAxMTIuMDU0QzUzLjc5MDcgMTEwLjE0NCA1Ny43MDU2IDExOS4xNzggNTkuOTc2OSAxMTYuMTIzQzY3LjY5ODcgMTE4LjIxMyA2NS40MTI5IDEyMi45NzcgNjUuNjA5NSAxMjcuNTAzQzY0LjM1MTQgMTMwLjE0MSA1OS4zOTc5IDEyMS4zMDQgNjQuNTA2MyAxMjEuNzE0QzYwLjQ3NjIgMTE1LjE2NyA2MC4wNDgzIDExOS4zNDcgNTYuNjk5NCAxMjIuMzg5QzU1LjkyMDMgMTIyLjYwOSA2NS4yNDE3IDEyNi43MTYgNTkuMzkyIDEyOC43NDdDNjQuNTM4NSAxMjkuNTQxIDY0LjY4NDkgMTM0LjA0NCA2NS43MzI2IDEzNi44OTRDNjguODI1OSAxNDAuMTE2IDY4LjE5MjggMTMzLjMzNyA3MS44OTQxIDEzNy4yMDhDNjkuNTUxOSAxMzMuNzU5IDU5LjQ4NzkgMTI3LjQ4OSA2Ny41OTA4IDEyOS41QzY3LjU0NzUgMTI2LjAyOCA2Ni4xMjUzIDEyMy4yMjkgNjguNjA3OCAxMjMuMjk3QzcxLjA2NjIgMTE4Ljg0NSA2Ni4wMzMxIDEzNC4yNzQgNzEuNTc0NCAxMjguNjE2QzczLjEwODMgMTI3Ljk0NiA3My40ODgzIDEyNC4xNTggNzYuMjQ1NSAxMjguOTczQzgwLjI1MDEgMTMyLjkxMyA3Ny42OTIgMTM1Ljc2OCA3Mi4wNDI5IDEzMi4xNkM3My4wNTM2IDEzNS41ODkgNzkuNTk5OSAxMzYuODE0IDc4LjM2OTcgMTQyLjE3NkM3OS42NzM4IDE0Ni44OTEgODEuNDk4NSAxNDUuMTU1IDgzLjA4ODkgMTQ0Ljg4MkM4NC4zMzY1IDE0OS40NjQgODUuMDQ1IDE0Ni4wOTUgODUuMTA0MiAxNDMuOTE0QzkwLjgxNjcgMTQ1LjEzNyA4OS40Nzg2IDE0OC41MTQgOTEuMjY2IDE1MC44NzNDOTUuMjAyNCAxNTIuNjUgODUuNjMxNyAxMzguODI5IDkyLjM4OTggMTQ2LjcxN0M5OS41IDE1My4xMzcgOTUuMDU2NCAxNTUuODE3IDg4LjY3NTYgMTU0Ljc4OEM5Mi43MTQxIDE1NC40NjIgOTQuMDE2NSAxNjAuMjQ4IDk5LjA2NzkgMTYwLjA0NUMxMDMuNjc0IDE2Mi4yMzYgMTA2Ljc5MyAxNzAuNjUzIDk4Ljg1MzEgMTY3LjE0OUM5Ni4wOTkyIDE2NC42NjYgODYuMzUzNiAxNjEuNjAzIDk0LjMxMzUgMTY2LjMyNkMxMDEuNjY1IDE2OS43MyAxMDcuNTA0IDE3MS43NjcgMTE0LjU5NSAxNzYuMDRDMTE5LjY2OSAxNzkuNjYzIDEyMS44NjEgMTgzLjgxMiAxMjMuNzg1IDE4NC42MzNDMTE5LjUyIDE4Ni42NyAxMTAuOTMyIDE4My4wMDcgMTE3LjMwOSAxODEuODg0QzExMy4zMzIgMTgxLjE2IDEwOC44NTggMTc5LjE0OCAxMTIuNjY4IDE4NC4xMDRDMTE1LjkwNyAxODYuODA5IDEyNC4xNDUgMTg2LjUyMiAxMjUuNjIyIDE4Ni44MjhDMTI0LjM3IDE4OS41ODcgMTIyLjIyMiAxODkuODA2IDEyNS42NzMgMTkwLjAyQzEyMS44MjMgMTkyLjA3MiAxMjYuOTA3IDE5Mi4zODkgMTI3LjI2NCAxOTMuNTYySDEyNy4yNjRaTTExOS4zOTEgMTcxLjMyOEMxMTcuMDQ4IDE2OC44NzggMTE2LjQ0MyAxNjQuMjg5IDExOC45NzUgMTY4LjI4MkMxMjAuMjczIDE2OC44MDMgMTIzLjEzNSAxNzUuNzggMTE5LjM5MSAxNzEuMzI4SDExOS4zOTFaTTE0NS4wMzIgMTg3LjYxNUMxNDYuNDkzIDE4Ny41MiAxNDUuMDc0IDE4OC43MjUgMTQ1LjAzMiAxODcuNjE1VjE4Ny42MTVaTTExNS42OTIgMTY1LjMyMUMxMTUuNjAyIDE2MS42MTcgMTE2LjUzOSAxNjguMTc3IDExNS42OTIgMTY1LjMyMVYxNjUuMzIxWk0xMTMuMTQ0IDE2MS44OTJDMTEwLjE5NyAxNTYuMTk5IDExNi44NTggMTYzLjUwNCAxMTMuMTQ0IDE2MS44OTJWMTYxLjg5MlpNODIuMjYxMyAxNDAuNTc3QzgzLjk5MjQgMTQwLjExNSA4My4xMTMgMTQzLjUzOCA4Mi4yNjEzIDE0MC41NzdWMTQwLjU3N1pNMTA2Ljg0IDE1My44OTlDMTA3LjkwMyAxNDkuOTA3IDEwOC4wODkgMTU3LjI0OSAxMDYuODQgMTUzLjg5OVYxNTMuODk5Wk04OS40NzU4IDE0MS44MjZDODguMjUxOCAxMzkuNjIzIDkyLjAzNjIgMTQzLjg5MiA4OS40NzU4IDE0MS44MjZWMTQxLjgyNlpNMTA0LjM3OCAxNDYuNjAzQzEwMS41ODYgMTQwLjM0OCAxMDYuMzU0IDE0My4xODYgMTA0Ljk5NSAxNDcuNjI4TDEwNC4zNzggMTQ2LjYwM1pNNzguNjc5MyAxMjkuNDY0Qzc3LjQzMTMgMTI3LjQxMyA3NS4zNjY5IDEyMS4zOTIgNzYuMDMxNSAxMTkuNTU0Qzc2LjYzMjcgMTIyLjU0NyA4Mi4zOTY2IDEzMi40MzUgNzguODU4OCAxMjMuNjVDNzQuOTQ5MyAxMTYuMjg2IDgzLjUzMjEgMTI2LjA0MSA4NC40MTUgMTI3Ljg3N0M4NC44MjYxIDEyOS43MDUgODIuMDAyOSAxMjcuMzc4IDgzLjkxNTggMTMxLjY2M0M4MC40MjczIDEyNi43ODUgODEuODU2NCAxMzQuMzU3IDc4LjY3OTMgMTI5LjQ2NFYxMjkuNDY0Wk03MC43MzcxIDEyMy45OTJDNzEuMDY0IDExOS4yMjEgNzIuNTU1MiAxMjcuMjYzIDcwLjczNzEgMTIzLjk5MlYxMjMuOTkyWk03NC4zMDk2IDEyNS4yMjFDNzYuMDE0MyAxMjEuNjIxIDc3LjIwMDIgMTMwLjI0MSA3NC4zMDk2IDEyNS4yMjFWMTI1LjIyMVpNNjUuNzE1OCAxMTguNTczQzYyLjc1ODkgMTE1LjYzNSA2MC42MTkxIDExMi45MjcgNjUuODU0MiAxMTYuNzVDNjcuODcxMyAxMTYuODI5IDYxLjM3MjUgMTEwLjU5IDY2LjM0IDExNC43NjlDNzEuNTYzNCAxMTUuNzIxIDY4LjkxOTMgMTIzLjMzMyA2NS43MTU4IDExOC41NzNaTTcwLjIzIDExOC40NTVDNzEuOTQ3MiAxMTYuNzU0IDcxLjE0MTYgMTIwLjEzMSA3MC4yMyAxMTguNDU1VjExOC40NTVaTTczLjAwNzYgMTE5LjM0NkM3MC40MDQzIDExNC40NjYgNzYuMTY3MiAxMjEuMzkyIDczLjAwNzYgMTE5LjM0NlYxMTkuMzQ2Wk02Ny40ODU5IDExNC4wNjlDNTguODg5OSAxMDYuNDE5IDc4LjI4NzMgMTE4LjA2OSA2OC44OTAyIDExNS40ODdMNjcuNDg1OCAxMTQuMDY5TDY3LjQ4NTkgMTE0LjA2OVYxMTQuMDY5Wk05Mi4xMTQ3IDEyOC4zNzlDODguMzk0OSAxMjYuMTQ5IDkxLjEyODkgMTEyLjY3NyA5Mi4zOTc1IDEyMS44OTFDOTYuMDEzNyAxMjAuNzIxIDkyLjE5NzggMTI2LjY0OSA5NC44OTUgMTI2LjU5NEM5NC40NyAxMzAuMzM0IDkzLjI2MzMgMTMxLjY3OSA5Mi4xMTQ3IDEyOC4zNzlaTTEwMS4yMjQgMTMzLjc2M0MxMDEuNTg5IDEyOS43MDMgMTAxLjk5MiAxMzYuNTM5IDEwMS4yMjQgMTMzLjc2M1YxMzMuNzYzWk05OS42NDIgMTMyLjE5OUMxMDAuMDUyIDEzMC40NjUgOTkuNjg0NCAxMzQuMjQyIDk5LjY0MiAxMzIuMTk5VjEzMi4xOTlaTTY5LjE3MjEgMTExLjU1NUM2My42NDk4IDEwMy45MzYgODUuMjIxNSAxMTkuMjYyIDcyLjcwOTEgMTEzLjQ4OEM3MS40MDE2IDExMy4xNDYgNjkuODI4NSAxMTMuMDI0IDY5LjE3MjEgMTExLjU1NVpNODYuNzE0MiAxMjAuODU2Qzg2LjE5MTYgMTE0LjQ0MSA4Ny44ODEzIDEyMS45MTkgODYuNzE0IDEyMC44NTZMODYuNzE0MiAxMjAuODU2Wk0xMDAuMDMzIDEyOS40QzEwMS4wNjMgMTI1Ljc0NSAxMDAuMTEgMTMxLjgxNyAxMDAuMDMzIDEyOS40VjEyOS40Wk03MC4wMTgxIDEwOC42NDdDNzMuMzAwMiAxMDcuOTQ1IDgzLjYxOTggMTE0LjQxMiA3NC4xNDMxIDExMC40OTRDNzMuMDkwMiAxMDkuMzI5IDcwLjg0NTQgMTA5Ljg1OCA3MC4wMTgxIDEwOC42NDdaTTk4LjIwMjkgMTIyLjY5NUM5OC41NTM3IDExNi4xMzUgMTAwLjE2MiAxMTguNzc2IDk4LjIxNSAxMjMuNjM0TDk4LjIwMyAxMjIuNjk1TDk4LjIwMjkgMTIyLjY5NUg5OC4yMDI5Wk03Mi40NjEzIDEwNi4zNjVDNzMuNzk4NiAxMDQuNDAzIDY4LjkxMTMgOTcuNDk1NyA3My4xNjU3IDEwMy44ODdDNzUuMDA0MSAxMDUuMzQ4IDc4LjQ4ODQgMTA2LjMzNCA3NS40MTIxIDEwNi45NDlDODAuMjUwMyAxMTEuMjE3IDc0LjIzMiAxMDguMTA1IDcyLjQ2MTMgMTA2LjM2NVYxMDYuMzY1Wk05Ni44MDg4IDEyMC42NDZDOTcuNzMyNyAxMTMuMTczIDk3LjYyMzYgMTI1LjAyNCA5Ni44MDg4IDEyMC42NDZWMTIwLjY0NlpNNjkuNjY4MyA5OS40NjI2QzcwLjY4OTcgOTkuMDI2MSA3MC4yMDc3IDEwMC44MjQgNjkuNjY4MyA5OS40NjI2Vjk5LjQ2MjZaTTc2LjAxOTIgMTAzLjI0M0M3Ny42NTM2IDk5LjgxMyA3OS4wMzQzIDEwNy4wNjggNzYuMDE5MiAxMDMuMjQzVjEwMy4yNDNaTTkzLjkzMzQgMTEzLjIwOEM5My45MTYxIDExMS44OTEgOTQuMjcxNCAxMTUuMTI0IDkzLjkzMzQgMTEzLjIwOFYxMTMuMjA4Wk05Mi44OTU3IDExMC45MTFDOTAuNDA5MyAxMDQuNzc3IDk1LjIwODUgMTE0LjE1OSA5Mi44OTU3IDExMC45MTFWMTEwLjkxMVpNOTEuMzY5IDEwNi44ODlDOTAuOTUxNyAxMDQuMzU0IDkyLjc4NzUgMTEwLjA3MyA5MS4zNjkgMTA2Ljg4OUw5MS4zNjkgMTA2Ljg4OVpNOTMuODUzNiAxMDIuODVDOTIuMTQ3NCA5OS44NDMyIDk2LjAwODMgODkuNTk5OCA5Ni40MzkxIDk1Ljk1MjdDOTQuNjM4MiAxMDAuOTAzIDk1LjkxOTYgMTAzLjY3MiA5Ny4xNzU5IDk3LjAzMjVDOTkuNDk1OSA5MS44MDcyIDk2LjY3NDcgMTA3LjM0NCA5My44NTM2IDEwMi44NUw5My44NTM2IDEwMi44NVYxMDIuODVaTTk2LjQwNyA4Ny42MTYzQzk3LjE1MDcgODYuNzAzIDk2LjU3MiA4OC43MTY3IDk2LjQwNyA4Ny42MTYzVjg3LjYxNjNaTTkyLjE0MjkgMTcxLjYzOEM5MS4xMzE2IDE3MC43NTUgOTIuMjcgMTcyLjIgOTIuMTQyOSAxNzEuNjM4VjE3MS42MzhaTTEwMC45MjcgMTc2LjA4MkMxMDUuODEzIDE3Ny4zMzUgMTA1Ljc4OCAxNzUuMzIxIDEwMS4zNzIgMTc0LjcyM0M5OC45OTY5IDE3Mi41MTMgOTEuNTAxOSAxNzAuMTcgOTguMjEwMyAxNzQuNDQ5Qzk4LjY1NDYgMTc1LjU3NCAxMDAuMDU4IDE3NS41NDggMTAwLjkyNyAxNzYuMDgyVjE3Ni4wODJaTTgzLjU3ODcgMTY0LjU1OUM4Ni4yNzA2IDE2Ni41NjYgOTMuNzE4MSAxNzAuMjQ4IDg3LjQxMzUgMTY1LjMyM0M4OS41MzkxIDE2Mi44NTMgODMuMzQ1IDE2MS41MzkgODUuMzk5NyAxNTkuODg3QzgwLjE3MzQgMTU2LjY4OSA4MS4yNzY5IDE1Ni45NzMgODQuOTM4NCAxNTcuMDc0Qzc4LjY1NzQgMTU0LjI2NiA4NS44NDUxIDE1NC40NzYgODUuNTA2NiAxNTMuMDM4QzgzLjA4NDcgMTUyLjU1OSA3My40NzY5IDE0OC43NjcgNzkuMTI5MSAxNTMuMzQ5QzczLjM4MzMgMTUwLjQyIDc3Ljc1OTkgMTU0LjQ0MSA3Ni4wMjMyIDE1NC4wMTZDNzAuMTQ3NyAxNTIuNDEzIDgxLjI1NTcgMTU4LjQ5IDc1LjA5MDEgMTU2Ljk4MkM3OC40NjA4IDE1OS42NTMgODQuMTYzIDE2My44MjQgNzYuNTE1MiAxNTkuODA5Qzc1LjUwNzUgMTYxLjI1OSA4MS45ODggMTYzLjQ1OCA4My41Nzg3IDE2NC41NTlaTTkyLjc2NTkgMTY5LjgzN0MxMDMuOTM3IDE3My40MzYgODcuMjg5MyAxNjUuNDM5IDkyLjc2NTkgMTY5LjgzN1YxNjkuODM3Wk0xMzkuNzk1IDE5OC4zMjdDMTM5LjkzOSAxOTYuMTExIDEzOC4yNjkgMjAwLjIxOCAxMzkuNzk1IDE5OC4zMjdWMTk4LjMyN1pNMTQ0LjYyOSAyMDAuMzYyQzE0Ny4yMDYgMTk3Ljg2NCAxNDQuNzM0IDIwNC4zNCAxNDguOSAxOTkuNzVDMTQ4Ljk0NSAxOTYuNDY1IDE0OC43NzEgMTk0LjUyNCAxNDQuMTEzIDE5OC41MTVDMTQyLjgyOSAxOTkuMjI3IDE0Mi4yNTYgMjAyLjI1NSAxNDQuNjI5IDIwMC4zNjJWMjAwLjM2MlpNNjcuODk4NyAxNTIuMTc0QzY3LjEwNzIgMTQ5LjA2MiA2Mi4zNTA2IDE0OS4wNzggNjcuODk4NyAxNTIuMTc0VjE1Mi4xNzRaTTczLjA2MDIgMTU1LjU1NkM3MS4xNDM1IDE1Mi4zNzggNjYuMjIxNCAxNTIuNjc5IDczLjA2MDIgMTU1LjU1NlYxNTUuNTU2Wk0xMDIuNDI0IDE3My4yNjVDMTA1LjI5MSAxNzUuODExIDExNS41OTIgMTc1LjEzMyAxMDUuOTA3IDE3My41NzhDMTA0LjQ3MiAxNzEuNDU3IDk2Ljc5OCAxNzEuOTY4IDEwMi40MjQgMTczLjI2NVpNMTQyLjc5MSAxOTguMTk0QzE0Ny4yMDMgMTk0LjQ5MiAxMzguNTE1IDE5OS44NDYgMTQyLjc5MSAxOTguMTk0VjE5OC4xOTRaTTE1MS45NjcgMjA0LjVDMTUxLjk5NSAyMDMuMzEyIDE1MC4wNjYgMjA1LjAyMSAxNTEuOTY3IDIwNC41VjIwNC41Wk0xNTEuOTgyIDIwMi44MzdDMTU2Ljg2OCAxOTcuNjYgMTQ3LjI0NyAyMDMuMTQzIDE1MS45ODIgMjAyLjgzN0gxNTEuOTgyWk01NS4yMDM2IDE0MS41NDVDNTEuMDM5IDEzNS42MDMgNTIuNjE0OCAxMzIuOTMyIDQ4LjU5ODcgMTI4LjA4MUM0Ny44Mzg0IDEyNC4zNzEgNDEuNzA5MSAxMTUuOTUxIDQ1LjQyODUgMTI0Ljg3MUM0OC44MzUyIDEzMC4wODcgNDkuODQ3NiAxMzguMTY0IDU1LjIwMzYgMTQxLjU0NVYxNDEuNTQ1Wk0xNTAuNDQ5IDIwMS4xOTFDMTU5LjQzOCAxOTUuMzgxIDE0Ni43NTkgMTk4LjY2IDE1MC40NDkgMjAxLjE5MVYyMDEuMTkxWk0xNTcuMzExIDIwMy44OEMxNjEuODEzIDIwMC4wMTQgMTU0LjQ2NCAyMDMuMDcxIDE1Ny4zMTEgMjAzLjg4VjIwMy44OFpNNjYuMzY4NyAxNDUuNjA2QzY3LjY1NzEgMTQzLjY4OSA2My4wNDE0IDE0NS4zNiA2Ni4zNjg3IDE0NS42MDZWMTQ1LjYwNlpNMTU1Ljg3OCAyMDIuMDQ0QzE2MC4yMzcgMTk5LjIzNCAxNTQuODc0IDE5OS42NjUgMTU1LjA4OCAyMDIuMzAzTDE1NS44NzggMjAyLjA0NEgxNTUuODc4Wk05Ni43MjUzIDE2NC43NkM5Ni41NzU1IDE2Mi44NjIgOTQuNDIzNiAxNjQuOTIxIDk2LjcyNTMgMTY0Ljc2VjE2NC43NlpNMTAwLjM4MSAxNjYuODYzQzk5LjIxOTEgMTY0LjUxNCA5OC41OTQ3IDE2Ny4yMzIgMTAwLjM4MSAxNjYuODYzVjE2Ni44NjNaTTE2Mi44NzIgMjAzLjk0M0MxNjguNDU2IDE5OS45MTUgMTU5LjQ4NyAyMDMuMTcyIDE2MS43IDIwNC43MDZMMTYyLjg3MiAyMDMuOTQzWk0xNjAuNzM0IDIwMi45MUMxNjUuMjgzIDE5OS4wOTggMTU1LjkzMSAyMDQuNTk5IDE2MC43MzQgMjAyLjkxVjIwMi45MVpNMTcxLjY1OSAyMTAuMTg1QzE3NC43MTMgMjA4LjE0IDE2Ny45NDggMjA5LjUyMyAxNzEuNjU5IDIxMC4xODVWMjEwLjE4NVpNNjkuMTY5OCAxNDQuMjIzQzczLjI2MzggMTQ1LjE0MSA4NS41MzA0IDE1NC4zMDYgNzguMjkzNiAxNDQuODU3Qzc0LjU4NzIgMTQzLjc2IDc2LjgxMDEgMTM0LjcgNzMuMDI5NSAxMzYuMzA0Qzc1LjU2NyAxNDAuNTQzIDc1LjExNzIgMTQyLjM0NyA2OS43ODk2IDEzOS42NzVDNjMuMDkzNyAxMzYuNDA2IDY2LjAyNjcgMTQxLjI5NCA2Ny4zMzUzIDE0Mi42NDJDNjUuNTUyIDE0My4wNDcgNjkuNjk0MiAxNDQuMTg5IDY5LjE2OTggMTQ0LjIyM1YxNDQuMjIzWk01MC41MTc3IDEyOS40OTNDNTEuMjUwNiAxMjYuNDYyIDQzLjc2OTEgMTEyLjgxNiA0Ni45ODQ4IDEyMi42NTZDNDguMTQ1NiAxMjQuNzE3IDQ4LjAyNzYgMTI4LjYyMyA1MC41MTc3IDEyOS40OTNaTTg0Ljc1MjMgMTUwLjU5OUM4Mi42NDQyIDE0OC44MzYgODQuNjUyMSAxNTAuMzUgODQuNzUyMyAxNTAuNTk5VjE1MC41OTlaTTg5Ljk0MzcgMTUxLjgwOEM4OS45NDEgMTQ4LjU5NiA4NC4yMDU0IDE1MC41MDQgODkuOTQzNyAxNTEuODA4VjE1MS44MDhaTTEzNC45MzEgMTgwLjE2OEMxMzQuMDczIDE3Ny45NzQgMTMxLjUzOSAxODAuMTE3IDEzNC45MzEgMTgwLjE2OEwxMzQuOTMxIDE4MC4xNjhaTTEzNy4wOTEgMTgxLjc0NkMxMzYuNzcyIDE4MC41MTggMTM1Ljg0NSAxODEuOTgzIDEzNy4wOTEgMTgxLjc0NlYxODEuNzQ2Wk0xNTQuOTIyIDE5Mi45NzdDMTU2LjYzNyAxOTEuNzEgMTUyLjc4MiAxOTIuODE2IDE1NC45MjIgMTkyLjk3N1YxOTIuOTc3Wk01OS44MzQ2IDEzMS44NzJDNjQuNzM5OSAxMjkuOTcyIDU0LjU3ODkgMTMwLjUxNyA1OS44MzQ2IDEzMS44NzJWMTMxLjg3MlpNMTMwLjk3IDE3Ni42ODhDMTMwLjkxNiAxNzMuNTEyIDEyNy44NDMgMTc3LjQ3NSAxMzAuOTcgMTc2LjY4OFYxNzYuNjg4Wk01Ny44OTY1IDEyNy4zNTVDNjEuMDQ3NCAxMjYuMjkxIDU0Ljk4MTYgMTI2LjY1NCA1Ny44OTY1IDEyNy4zNTVWMTI3LjM1NVpNNjcuMDQyMiAxMzEuNzg2QzY2Ljk4NTEgMTMwLjc0MiA2Ni4wNzQ4IDEzMi4xODEgNjcuMDQyMiAxMzEuNzg2VjEzMS43ODZaTTE3OC41OTMgMjAwLjE5QzE4Mi42NDUgMTk5LjM2OSAxOTEuODc4IDIwMi4yNTIgMTkzLjM3MSAxOTkuMTE2QzE4OC40NSAxOTguOTk2IDE3Ni4zNDcgMTk1LjY0NCAxNzUuNzc0IDE5OS45MTZMMTc2Ljg1MiAyMDAuMDg1TDE3OC41OTMgMjAwLjE5VjIwMC4xOVpNNjkuOTQ5IDEzMi41MThDNzAuMDE5NCAxMjkuMyA2Ny40Mzk2IDEzMi4zOTggNjkuOTQ5IDEzMi41MThWMTMyLjUxOFpNNDUuOTAyNSAxMTUuODM4QzQ0LjgxMDQgMTA5LjcwNiA0MS43NDkgMTE0LjkxIDQ1LjkwMjUgMTE1LjgzOFYxMTUuODM4Wk01MS42MzY3IDExNy4yNzlDNTEuNzA3MSAxMTUuMzEgNDYuMzg4MiAxMTUuNTA3IDUxLjYzNjcgMTE3LjI3OVYxMTcuMjc5Wk01NC45MTM2IDExOC44ODhDNTMuOTY2NCAxMTguMTIxIDU0LjE3MjIgMTE5Ljg1OCA1NC45MTM2IDExOC44ODhWMTE4Ljg4OFpNNzUuNTMyNiAxMzIuMTE1Qzc2LjUwMzMgMTMxLjIyNCA3My4yMzQ1IDEzMS40NTUgNzUuNTMyNiAxMzIuMTE1VjEzMi4xMTVaTTUyLjczMSAxMTUuMjU5QzUyLjE3NjggMTEwLjYyOCA0Ni4wODk2IDExNC41NjUgNTIuNzMxIDExNS4yNTlWMTE1LjI1OVpNNDAuOTc1IDEwNy42MzFDNDAuODA3OCAxMDUuNDkzIDM5LjgyOTQgMTA4LjQzNyA0MC45NzUgMTA3LjYzMVYxMDcuNjMxWk00Mi43MjM3IDEwNi4zMUM0Mi40Mzg0IDEwMy43NzYgNDEuMjIyMyAxMDYuNjMyIDQyLjcyMzcgMTA2LjMxVjEwNi4zMVpNNTIuMzg1NSAxMTIuMDc3QzU2LjQ3MTEgMTEwLjQ3MiA0NC45NDM3IDEwOC43NTggNTEuNTUwNyAxMTEuNzc0TDUyLjM4NTUgMTEyLjA3N1pNMTgxLjY5NCAxOTEuOTQ5QzE4NC4zMDkgMTg5LjU1MiAxNzguMzcxIDE5MS4yMDggMTgxLjY5NCAxOTEuOTQ5VjE5MS45NDlaTTE5Ny4zMTYgMjAwLjA0N0MxOTguMzY0IDE5Ni45NDcgMTk0LjY3NyAyMDAuNDU1IDE5Ny4zMTYgMjAwLjA0N1YyMDAuMDQ3Wk01My4zNzI5IDEwNy4wMTNDNTMuODAzMyAxMDQuMDE1IDUwLjEzMzkgMTA3LjYwOCA1My4zNzI5IDEwNy4wMTNWMTA3LjAxM1pNMzkuNjI2NSA5Ny44MDMxQzM4Ljg4OCA5My41Njk4IDM4Ljk4OSA4Ni4xMzkyIDQ2LjA1MjQgODguNjUwM0MzNi42MjM5IDkwLjUyMjIgNTIuNTc3OSAxMDAuMzY5IDUwLjU2MzIgOTIuNTk0NkM1NC41Mjc3IDkyLjc4ODcgNTguMzE4NiA5MC4yNTE2IDU2LjIzODEgOTQuMTAxOEM2NC4wNDkyIDkzLjIzOTEgNjkuNDY0NiA4Ni40NjU4IDc3LjAwOTYgODcuNDE0OUM4Mi44ODY4IDg2LjYzNzIgODkuMzEyNyA4Ni4wNDczIDk1LjY0NjEgODMuNjgxNkMxMDAuODUzIDgzLjMwNjQgMTA1Ljg2NiA3Ny43IDEwMy4wMTIgNzQuMzc2OUM5NS45MTA2IDczLjc3NjEgODguNDc3MiA3NC42NjQ2IDgwLjYyODMgNzYuMjI0N0M3MS45MzA4IDc4LjAzMjcgNjQuMDMwNiA4MS40NjggNTUuMjU1IDgyLjk0MjVDNDYuNzAxMyA4NC4wOTE2IDU2Ljk3NTUgODYuMTA4NCA1NC41MjUzIDg2LjU1NzdDNTAuMDYxOSA4OC4xMDY0IDU5Ljg0ODQgODkuMTUwNyA1My45NDY3IDkwLjc4MzRDNTAuMzAxOSA5MC4wOTA0IDQ2LjUwODIgODguODM4IDQ4LjA2NTEgODQuOTk3MUMzOS44NzE0IDg2LjA2MDQgMzIuNjcxNSA4OS40NjEgMzkuMTQ1IDk3Ljc5OTJMMzkuNjI2NSA5Ny44MDI5TDM5LjYyNjUgOTcuODAyNlY5Ny44MDMxWk01OS4zNzAzIDg3Ljc0NzZDNjEuMjkxNCA4MC42NzAzIDY5LjY2MjggOTMuNTcxNCA2Mi41MTkyIDg4LjY4NzZDNjEuNjY1OSA4OC4wNDkxIDYwLjI2MjYgODcuNTI4MSA1OS4zNzAzIDg3Ljc0NzZaTTU5Ljc0NDEgODQuMzE2M0M2Mi41MTY4IDgyLjI1MDcgNjEuMjE4IDg1LjQ3NDQgNTkuNzQ0MSA4NC4zMTYzVjg0LjMxNjNaTTYzLjI2NDggODQuMzcyMkM2My41MTUxIDgxLjExNTYgNzEuMzI0NCA4Ni4wOTYzIDY0LjU1MjUgODUuNTQ0Nkw2My4yNjQ4IDg0LjM3MjJaTTY4LjA4MDkgODIuNDM1OEM2OS44Mzk2IDgwLjM4MDggNjguNTg2NCA4NC4yNjM3IDY4LjA4MDkgODIuNDM1OFY4Mi40MzU4Wk02OS4zMTI5IDgxLjYxMDhDNzIuMjQxNCA3OC4wOTIxIDg1Ljg5NzMgNzkuMzY1MSA3NS45MDE3IDgxLjI2NzdDNzMuMjIyNSA3OS4yNTA3IDcxLjE2ODggODIuNDU3IDY5LjMxMjkgODEuNjEwOFpNODcuMTM0MiA3OC44NjM3Qzg2LjY4ODcgNjkuMjUyMSA5NS45ODggODIuMjc5MyA4Ny4xMzQyIDc4Ljg2MzdWNzguODYzN1pNOTIuMTkwOSA3OC44MzZDOTQuMDM5NyA3My45OTE3IDk5LjM2NTIgNzYuODkyMSA5My4wNDY0IDc3Ljg2MjZDOTMuMTgzNiA3OC4zNzgxIDkyLjg2MTEgODAuMzYzNSA5Mi4xOTA5IDc4LjgzNlpNNTEuMzc4OSAxMDQuNTI3QzU2LjkwMjggMTAxLjE0NCA0NS41MTQ4IDEwMS41OTIgNTEuMzc4OSAxMDQuNTI3VjEwNC41MjdaTTU1LjQ2MzIgMTA1LjY2MUM1Ny4zOTk5IDEwMy42MDIgNTEuMjU1IDEwNC44MjYgNTUuNDYzMiAxMDUuNjYxVjEwNS42NjFaTTQzLjQyOSA5Ny4xMjA3QzQ2LjU4NTMgOTQuNjk2IDM5LjY5MzkgOTYuMTk4OCA0My40MjkgOTcuMTIwN1Y5Ny4xMjA3Wk0yMDYuNTM2IDE5OS4xNjFDMjA2LjYyOCAxOTYuMzQ4IDIwNC4xMjQgMjAwLjQyOCAyMDYuNTM2IDE5OS4xNjFWMTk5LjE2MVpNMTg5Ljk2MyAxODcuODVDMTkwLjQzNCAxODQuNjEyIDE4Ny44MzMgMTg4LjEzMyAxODkuOTYzIDE4Ny44NVYxODcuODVaTTIxMS4wOTQgMjAwLjI1MUMyMTUuNTA3IDIwMC4yNjYgMjI0LjQ2NSAxOTguODgxIDIxNC44NjMgMTk4Ljg4NUMyMTMuMzU2IDE5OS4xMiAyMDYuMDg0IDE5OS4wNyAyMTEuMDk0IDIwMC4yNTFMMjExLjA5NCAyMDAuMjUxVjIwMC4yNTFaTTU5LjA1NTkgMTAzLjY3NkM2Mi42MjczIDEwMy40MzEgNjQuNjQzNiA5OS43MzY4IDU4LjM2NTEgOTkuOTQ5MUM0OC42MzQ1IDk4Ljk0MTcgNjYuOTUwMyAxMDMuMjgxIDU3LjExNjkgMTAyLjA0QzU1Ljc5NTUgMTAyLjkxNSA1OC45NzkxIDEwMy45MTggNTkuMDU1OSAxMDMuNjc2Wk02Mi4yMDEzIDEwNS4yNjhDNjEuODI4NCAxMDIuOTc1IDYxLjA5NjkgMTA2LjQ4NyA2Mi4yMDEzIDEwNS4yNjhWMTA1LjI2OFpNNjUuOTMyNCA5NS4zMTkyQzY3LjQ4MjMgOTMuMzk2OSA2My43ODc4IDk0LjgwNTMgNjUuOTMyNCA5NS4zMTkyVjk1LjMxOTJaTTU0LjA1NDggNzUuNDY1MUM2MC40Mjg4IDczLjI5NjcgNjkuMTQ1MSA3MC44NjAxIDcyLjE1NDcgNzYuNTMyN0M2OS4wOTE4IDcyLjg0NjMgNzAuOTE4NiA2OS4yMTcyIDczLjgxMTUgNzQuNjA3MUM3Ny45MDIyIDgwLjA2MDUgNzkuOTUgNzIuMTI2NyA3Ny4yODk0IDcwLjI5NzZDODAuMzIxNCA3NC4wNjQ4IDgzLjc2OTkgNzUuODQ1IDc5LjMxOTQgNzAuNTM1N0M4NC4xNTU2IDY0LjcxODIgNjkuNjM1OCA3MS4yOTc1IDY2LjMzNTYgNzEuMjMxMkM2NC43NDc3IDcxLjk0MzkgNDkuOTQyIDc1LjAwNzEgNTQuMDU0OCA3NS40NjUxVjc1LjQ2NTFaTTU3Ljc5MDMgNjguMzEwOUM2MS40MjU0IDY1LjU2NzIgNzAuMzYyNiA2OS45NDI5IDY0LjYyNzcgNjUuNTg0MkM2NC4wNjcgNjUuMDg4OSA1Mi4wNjgyIDY4Ljg4OTUgNTcuNzkwMyA2OC4zMTA5VjY4LjMxMDlaTTcxLjA0MjkgNjguODU4Qzc1LjI5NzQgNjguOTY2NiA2OS4yMDc4IDYzLjE0MjYgNzQuMjc3NSA2NS43ODE2QzczLjQ0NDkgNjMuMDYxNiA2OC4zNzUgNjIuNTUyNCA2NS44OTYzIDYxLjQ2NTZDNjQuNDk0NCA2My45NTI1IDY4Ljc0OTkgNjguODkxNCA3MS4wNDI5IDY4Ljg1OFpNNjAuMTE0MSA1Ni44Mjc5QzYxLjU4NTkgNTQuODMyNyA1Ny41MzQ2IDU3LjgzOTUgNjAuMTE0MSA1Ni44Mjc5VjU2LjgyNzlaTTY1LjUzMDYgNTguMTI0NEM3Mi4zODY3IDU3LjIxNSA2My43ODMgNTUuMTcxOSA2NC4xNDkxIDU4LjA1MTNMNjUuNTMwNiA1OC4xMjQ0VjU4LjEyNDRWNTguMTI0NFpNNTUuNDE2OCA1MC4yMTA2QzUwLjU4OTQgNDMuOTA4OCA2NC40OTU0IDUxLjI2OTkgNTkuNTkwOCA0NC42NzE3QzU1LjQ2MjcgNDEuMzg0NSA1MS40OTU5IDQ4LjM3MDkgNTUuNDE2OCA1MC4yMTA2Wk0xMTcuMzY5IDgzLjU3OThDMTE5LjU4MyA3OS42NTQ4IDEwOC4yMjggNzguMjg5MSAxMTUuODc3IDgyLjE4ODdDMTE2LjU4MiA4Mi40MjQxIDExNi40MjIgODMuODUxMyAxMTcuMzY5IDgzLjU3OThaIi8+JiN4YTs8L3N2Zz4=;" parent="1" vertex="1">
          <mxGeometry x="350" y="190" width="100" height="100" as="geometry" />
        </mxCell>
        <mxCell id="LNLuHS1_VjobmUFHNVjf-6" value="" style="shape=image;verticalLabelPosition=bottom;labelBackgroundColor=default;verticalAlign=top;aspect=fixed;imageAspect=0;image=data:image/svg+xml,PHN2ZyB4bWxucz0iaHR0cDovL3d3dy53My5vcmcvMjAwMC9zdmciIHZpZXdCb3g9IjAgMCAyNTYgMjU2IiBmaWxsPSJub25lIiBoZWlnaHQ9IjI1NiIgd2lkdGg9IjI1NiI+PHJlY3Qgcng9IjYwIiBmaWxsPSIjMDA5NjM5IiBoZWlnaHQ9IjI1NiIgd2lkdGg9IjI1NiIvPjxwYXRoIGQ9Ik0xOTUuMzM4IDIxM0MxOTAuNzQ2IDIxMyAxODYuMjI0IDIxMS4yMTMgMTgyLjg0NyAyMDcuODI5TDc4LjMyMzkgMTAzLjMwN1YxOTUuMzRDNzguMzIzOSAyMDUuMDk1IDcwLjQxODQgMjEzIDYwLjY2MiAyMTNDNTAuOTEyNiAyMTMgNDMgMjA1LjA5NSA0MyAxOTUuMzRWNjAuNjY3OEM0MyA1My41MTg5IDQ3LjMwOTUgNDcuMDgzNCA1My45MDggNDQuMzQ5NkM2MC40OTk1IDQxLjYwODcgNjguMTAxMiA0My4xMjA0IDczLjE1MjUgNDguMTc4NEwxNzcuNjc2IDE1Mi43VjYwLjY2NzhDMTc3LjY3NiA1MC45MTIyIDE4NS41ODIgNDMuMDA3NCAxOTUuMzM4IDQzLjAwNzRDMjA1LjA5NSA0My4wMDc0IDIxMyA1MC45MTIyIDIxMyA2MC42Njc4VjE5NS4zNEMyMTMgMjAyLjQ4MSAyMDguNjkgMjA4LjkyNCAyMDIuMDkyIDIxMS42NThDMTk5LjkwOSAyMTIuNTYyIDE5Ny42MiAyMTMgMTk1LjMzOCAyMTNaIiBmaWxsPSIjZmZmIi8+PC9zdmc+;" parent="1" vertex="1">
          <mxGeometry x="350" y="340" width="100" height="100" as="geometry" />
        </mxCell>
        <mxCell id="LNLuHS1_VjobmUFHNVjf-7" value="" style="shape=image;verticalLabelPosition=bottom;labelBackgroundColor=default;verticalAlign=top;aspect=fixed;imageAspect=0;image=data:image/svg+xml,PHN2ZyB4bWxucz0iaHR0cDovL3d3dy53My5vcmcvMjAwMC9zdmciIHZpZXdCb3g9IjAgMCAyNTYgMjU2IiBmaWxsPSJub25lIiBoZWlnaHQ9IjI1NiIgd2lkdGg9IjI1NiI+PHJlY3Qgcng9IjYwIiBmaWxsPSIjRjRGMkVEIiBoZWlnaHQ9IjI1NiIgd2lkdGg9IjI1NiIvPjxnIGNsaXAtcGF0aD0idXJsKCNjbGlwMF83XzE1MCkiPjxwYXRoIGNsaXAtcnVsZT0iZXZlbm9kZCIgZD0iTTIwMy44MDEgMTc4LjIxQzE5NC4wMTEgMTc3LjkzOCAxODYuNDE2IDE3OC45NDEgMTgwLjA1MSAxODEuNjE5QzE3OC4yMTggMTgyLjM1NSAxNzUuMjc3IDE4Mi4zNTUgMTc1LjAzNSAxODQuNjYyQzE3Ni4wMTUgMTg1LjYzIDE3Ni4xMzMgMTg3LjIxNCAxNzYuOTkyIDE4OC41NTZDMTc4LjQ1OSAxOTAuOTkxIDE4MS4wMzMgMTk0LjI3MSAxODMuMzU3IDE5NS45NzNMMTkxLjE5MSAyMDEuNTcxQzE5NS45NjUgMjA0LjQ4OCAyMDEuMzUxIDIwNi4xOTMgMjA2LjAwMiAyMDkuMTEzQzIwOC42OTYgMjEwLjgxNyAyMTEuMzg4IDIxMy4wMDcgMjE0LjA4MiAyMTQuODM0QzIxNS40NTQgMjE1LjgwNyAyMTYuMjg1IDIxNy4zOTIgMjE4IDIxNy45OTdWMjE3LjYyOUMyMTcuMTQ0IDIxNi41MzggMjE2Ljg5NyAyMTQuOTU3IDIxNi4wNDQgMjEzLjczNUwyMTIuMzY3IDIxMC4yMDlDMjA4LjgyIDIwNS40NjUgMjA0LjQxIDIwMS4zMjUgMTk5LjYzNiAxOTcuOTIyQzE5NS43MTggMTk1LjI0NSAxODcuMTUyIDE5MS41OTYgMTg1LjU2IDE4Ny4wOTdMMTg1LjMxOSAxODYuODI0QzE4OC4wMDggMTg2LjU1MiAxOTEuMTkxIDE4NS42MDUgMTkzLjc2NCAxODQuODc1QzE5Ny45MjkgMTgzLjc4NCAyMDEuNzIxIDE4NC4wMjQgMjA2LjAwMiAxODIuOTNMMjExLjg4MiAxODEuMjI2VjE4MC4xMzVDMjA5LjY3OCAxNzcuOTQ2IDIwOC4wODcgMTc1LjAyNSAyMDUuNzYzIDE3Mi45NTlDMTk5LjUyMSAxNjcuNjA2IDE5Mi42NjEgMTYyLjM3MyAxODUuNTYgMTU3Ljk5NEMxODEuNzY2IDE1NS41NjIgMTc2Ljg2OCAxNTMuOTc3IDE3Mi44MjkgMTUxLjkxM0MxNzEuMzU2IDE1MS4xODIgMTY4LjkxMSAxNTAuODE3IDE2OC4wNTUgMTQ5LjYwMUMxNjUuODQ2IDE0Ni45MjkgMTY0LjYyNSAxNDMuMzk3IDE2My4wMzQgMTQwLjIzMkwxNTIuOTk3IDExOS4wNjRDMTUwLjc5NCAxMTQuMzE5IDE0OS40NDQgMTA5LjU3NCAxNDYuNzU1IDEwNS4xOTVDMTM0LjE0NCA4NC41MTI0IDEyMC40MzEgNzEuOTgyOCA5OS4zNzUgNTkuNjkzMkM5NC44NDc3IDU3LjEzODIgODkuNDYxNiA1Ni4wMzkzIDgzLjczNTMgNTQuNzAzMkw3NC41NTQ2IDU0LjIxMjRDNzIuNTkyOCA1My4zNjE2IDcwLjYzNjQgNTEuMDQ5MyA2OC45MjE2IDQ5Ljk1MzFDNjEuOTQ0MSA0NS41NzM5IDQzLjk0NzUgMzYuMDg0NyAzOC44MDI5IDQ4LjU4OTdDMzUuNDk2NiA1Ni40OTc0IDQzLjcwMDYgNjQuMjgyNCA0Ni40ODU1IDY4LjI5OUM0OC41NzA4IDcxLjA5NjYgNTEuMjU5NyA3NC4yNTk3IDUyLjczMzIgNzcuNDIyOEM1My41NTYzIDc5LjQ4OTcgNTMuODMwNyA4MS42ODIgNTQuNjg5NSA4My44NzE3QzU2LjY0NTggODkuMjI0MyA1OC40ODQyIDk1LjE4NzggNjEuMDU1MSAxMDAuMTc4QzYyLjQyNyAxMDIuNzMzIDYzLjg2NzUgMTA1LjQxMyA2NS41ODI0IDEwNy43MjNDNjYuNTYxOSAxMDkuMDg2IDY4LjI3NjggMTA5LjY3IDY4LjY0MTcgMTExLjg1OUM2Ni45MjY4IDExNC4yOTQgNjYuODA4OSAxMTcuOTQgNjUuODI5MyAxMjAuOTg2QzYxLjQyIDEzNC43MzQgNjMuMTM0OSAxNTEuNzY2IDY5LjM3NyAxNjEuODg4QzcxLjMzODkgMTY0LjkyOCA3NS45NjIyIDE3MS42MjIgODIuMjM0NSAxNjkuMDY1Qzg3Ljc0NCAxNjYuODc1IDg2LjUxNDggMTU5Ljk0MSA4OC4xMDYyIDE1My44NTdDODguNDc2NiAxNTIuMzk5IDg4LjIyOTcgMTUxLjQyNSA4OC45NjIzIDE1MC40NDlWMTUwLjcyMkw5My45ODM0IDE2MC44MTlDOTcuNzc4MSAxNjYuNzggMTA0LjM5MSAxNzIuOTg2IDEwOS44OTcgMTc3LjEyNUMxMTIuODMzIDE3OS4zMTUgMTE1LjE2IDE4My4wODkgMTE4LjgzMSAxODQuNDI1VjE4NC4wNTdIMTE4LjU5QzExNy44NTQgMTgyLjk2NiAxMTYuNzUxIDE4Mi40NzUgMTE1Ljc3MiAxODEuNjI0QzExMy41NjkgMTc5LjQzNSAxMTEuMTIxIDE3Ni43NTcgMTA5LjQwNiAxNzQuMzI1QzEwNC4yNjcgMTY3LjUxMyA5OS43Mzk5IDE1OS45NjggOTUuNjk4MyAxNTIuMTgzQzkzLjczNjUgMTQ4LjQxMiA5Mi4wMjE2IDE0NC4yNzUgOTAuNDM1NyAxNDAuNTA0Qzg5LjY5NDkgMTM5LjA0MyA4OS42OTQ5IDEzNi44NSA4OC40NzM5IDEzNi4xMjVDODYuNjM1NSAxMzguNzk3IDgzLjk0NjYgMTQxLjExNSA4Mi41OTM5IDE0NC4zOThDODAuMjY3MiAxNDkuNjI4IDgwLjAyNTcgMTU2LjA3NyA3OS4xNjk3IDE2Mi43NjlDNzguNjc1OCAxNjIuODkxIDc4Ljg5NTMgMTYyLjc2OSA3OC42NzU4IDE2My4wNDFDNzQuNzYzMSAxNjIuMDcxIDczLjQxMzIgMTU4LjA1MSA3MS45NDUzIDE1NC42NDhDNjguMjc0IDE0Ni4wMSA2Ny42NTk0IDEzMi4xNDEgNzAuODQyMiAxMjIuMTY0QzcxLjY5ODMgMTE5LjYwOSA3NS4zNzUgMTExLjU3OSA3My45MDcxIDEwOS4xNDZDNzMuMTY2MiAxMDYuODM0IDcwLjcyNDIgMTA1LjQ5OCA2OS4zNzQzIDEwMy42NzFDNjcuNzgyOSAxMDEuMzU5IDY2LjA3MzUgOTguNDQwOSA2NC45NzA1IDk1Ljg4NTlDNjIuMDM0NiA4OS4wNjg5IDYwLjU2NjcgODEuNTI5MyA1Ny4zODEyIDc0LjcxNTFDNTUuOTA3NyA3MS41NTIgNTMuMzM5NiA2OC4yNjYyIDUxLjI1NyA2NS4zNDg2QzQ4LjkzMDMgNjIuMDYyOCA0Ni4zNjQ4IDU5Ljc1MDUgNDQuNTI2NSA1NS44NTkzQzQzLjkxNDYgNTQuNDk1OSA0My4wNTg1IDUyLjMzMDkgNDQuMDM4MSA1MC44NjkzQzQ0LjI3OTUgNDkuODk1OSA0NC43NzM0IDQ5LjUwNTkgNDUuNzQ3NSA0OS4yODc4QzQ3LjMzODkgNDcuOTI0NCA1MS44NzE2IDQ5LjY1MzIgNTMuNDYzIDUwLjM3ODVDNTcuOTkwMyA1Mi4yMDU0IDYxLjc4NDkgNTMuOTA3IDY1LjU3OTYgNTYuNDU5MkM2Ny4yOTQ1IDU3LjY3NTQgNjkuMTMyOSA1OS45ODc3IDcxLjMzNjEgNjAuNTk4NUg3My45MDk4Qzc3LjgyNzkgNjEuNDQ5MyA4Mi4yMzE3IDYwLjg3MTIgODUuOTAwMiA2MS45NjE5QzkyLjM4OTMgNjQuMDM0MyA5OC4yNjM3IDY3LjA3MTkgMTAzLjUzMiA3MC4zNjA0QzExOS41NjcgODAuNDU3NyAxMzIuNzkyIDk0LjgxNDMgMTQxLjcyNSAxMTEuOTcxQzE0My4xOTMgMTE0Ljc2OSAxNDMuODA1IDExNy4zMjQgMTQ1LjE1NSAxMjAuMjQ0QzE0Ny43MjkgMTI2LjIwOCAxNTAuOTEyIDEzMi4yODkgMTUzLjQ3NyAxMzguMTMyQzE1Ni4wNTEgMTQzLjg1IDE1OC40OTggMTQ5LjY5NCAxNjIuMTcgMTU0LjQzOEMxNjQuMDA4IDE1Ni45OTMgMTcxLjM1IDE1OC4zMjkgMTc0LjY1NCAxNTkuNjY4QzE3Ny4xMDQgMTYwLjc1OSAxODAuODk2IDE2MS43NDEgMTgzLjEwNSAxNjMuMDc3QzE4Ny4yNjQgMTY1LjYzMiAxOTEuNDI3IDE2OC41NTIgMTk1LjM0MiAxNzEuMzVDMTk3LjI5OCAxNzIuODA2IDIwMy40MjMgMTc1Ljg0OSAyMDMuNzg3IDE3OC4yNzZMMjAzLjgwMSAxNzguMjFaTTc4Ljk1ODQgNzIuNDg3M0M3Ny4yNjcgNzIuNDcyNCA3NS41ODA5IDcyLjY3NjkgNzMuOTQyNyA3My4wOTU0VjczLjM2ODFINzQuMTg0MkM3NS4xNjM3IDc1LjMxNSA3Ni44Nzg2IDc2LjY1MzggNzguMTAyMyA3OC4zNTgxTDgwLjkyMDIgODQuMTk4OUw4MS4xNjE2IDgzLjkyNjJDODIuODc2NSA4Mi43MSA4My43MzUzIDgwLjc2MzEgODMuNzM1MyA3Ny44NDU0QzgzIDc2Ljk5NDcgODIuODc5MyA3Ni4xNDEyIDgyLjI2NzQgNzUuMjkwNEM4MS41MzIxIDc0LjA3NDMgNzkuOTQwNyA3My40NjM1IDc4Ljk1ODQgNzIuNDkyOFY3Mi40ODczWiIgZmlsbC1ydWxlPSJldmVub2RkIiBmaWxsPSIjMDA2NzhDIi8+PC9nPjxkZWZzPjxjbGlwUGF0aCBpZD0iY2xpcDBfN18xNTAiPjxyZWN0IHRyYW5zZm9ybT0idHJhbnNsYXRlKDM4IDM4KSIgZmlsbD0iI2ZmZiIgaGVpZ2h0PSIxODAiIHdpZHRoPSIxODAiLz48L2NsaXBQYXRoPjwvZGVmcz48L3N2Zz4=;" parent="1" vertex="1">
          <mxGeometry x="560" y="270" width="100" height="100" as="geometry" />
        </mxCell>
        <mxCell id="YX2rQ0Zm5bxFWOcHUKYA-1" style="edgeStyle=orthogonalEdgeStyle;rounded=0;orthogonalLoop=1;jettySize=auto;html=1;" parent="1" source="LNLuHS1_VjobmUFHNVjf-8" target="LNLuHS1_VjobmUFHNVjf-4" edge="1">
          <mxGeometry relative="1" as="geometry">
            <Array as="points">
              <mxPoint x="200" y="240" />
            </Array>
          </mxGeometry>
        </mxCell>
        <mxCell id="A7sKQJCQrOc_YvX3gsob-2" style="edgeStyle=orthogonalEdgeStyle;rounded=0;orthogonalLoop=1;jettySize=auto;html=1;entryX=0;entryY=0.5;entryDx=0;entryDy=0;" edge="1" parent="1" source="LNLuHS1_VjobmUFHNVjf-8" target="LNLuHS1_VjobmUFHNVjf-6">
          <mxGeometry relative="1" as="geometry" />
        </mxCell>
        <mxCell id="LNLuHS1_VjobmUFHNVjf-8" value="" style="shape=image;verticalLabelPosition=bottom;labelBackgroundColor=default;verticalAlign=top;aspect=fixed;imageAspect=0;image=data:image/svg+xml,PHN2ZyB4bWxucz0iaHR0cDovL3d3dy53My5vcmcvMjAwMC9zdmciIHZpZXdCb3g9IjAgMCAyNTYgMjU2IiBmaWxsPSJub25lIiBoZWlnaHQ9IjI1NiIgd2lkdGg9IjI1NiI+PHJlY3Qgcng9IjYwIiBmaWxsPSIjMDA5NjM5IiBoZWlnaHQ9IjI1NiIgd2lkdGg9IjI1NiIvPjxwYXRoIGQ9Ik0xOTUuMzM4IDIxM0MxOTAuNzQ2IDIxMyAxODYuMjI0IDIxMS4yMTMgMTgyLjg0NyAyMDcuODI5TDc4LjMyMzkgMTAzLjMwN1YxOTUuMzRDNzguMzIzOSAyMDUuMDk1IDcwLjQxODQgMjEzIDYwLjY2MiAyMTNDNTAuOTEyNiAyMTMgNDMgMjA1LjA5NSA0MyAxOTUuMzRWNjAuNjY3OEM0MyA1My41MTg5IDQ3LjMwOTUgNDcuMDgzNCA1My45MDggNDQuMzQ5NkM2MC40OTk1IDQxLjYwODcgNjguMTAxMiA0My4xMjA0IDczLjE1MjUgNDguMTc4NEwxNzcuNjc2IDE1Mi43VjYwLjY2NzhDMTc3LjY3NiA1MC45MTIyIDE4NS41ODIgNDMuMDA3NCAxOTUuMzM4IDQzLjAwNzRDMjA1LjA5NSA0My4wMDc0IDIxMyA1MC45MTIyIDIxMyA2MC42Njc4VjE5NS4zNEMyMTMgMjAyLjQ4MSAyMDguNjkgMjA4LjkyNCAyMDIuMDkyIDIxMS42NThDMTk5LjkwOSAyMTIuNTYyIDE5Ny42MiAyMTMgMTk1LjMzOCAyMTNaIiBmaWxsPSIjZmZmIi8+PC9zdmc+;" parent="1" vertex="1">
          <mxGeometry x="160" y="340" width="100" height="100" as="geometry" />
        </mxCell>
        <mxCell id="LNLuHS1_VjobmUFHNVjf-10" value="Web Server(NGINX)" style="text;html=1;align=center;verticalAlign=middle;whiteSpace=wrap;rounded=0;" parent="1" vertex="1">
          <mxGeometry x="140" y="450" width="140" height="30" as="geometry" />
        </mxCell>
        <mxCell id="LNLuHS1_VjobmUFHNVjf-11" value="WAS framework(FLASK)" style="text;html=1;align=center;verticalAlign=middle;whiteSpace=wrap;rounded=0;" parent="1" vertex="1">
          <mxGeometry x="330" y="300" width="150" height="30" as="geometry" />
        </mxCell>
        <mxCell id="LNLuHS1_VjobmUFHNVjf-12" value="DB(MYSQL)" style="text;html=1;align=center;verticalAlign=middle;whiteSpace=wrap;rounded=0;" parent="1" vertex="1">
          <mxGeometry x="559" y="380" width="101" height="30" as="geometry" />
        </mxCell>
        <mxCell id="YX2rQ0Zm5bxFWOcHUKYA-2" value="" style="shape=image;verticalLabelPosition=bottom;labelBackgroundColor=default;verticalAlign=top;aspect=fixed;imageAspect=0;image=data:image/svg+xml,PHN2ZyB4bWxucz0iaHR0cDovL3d3dy53My5vcmcvMjAwMC9zdmciIHZpZXdCb3g9IjAgMCAyNTYgMjU2IiBmaWxsPSJub25lIiBoZWlnaHQ9IjI1NiIgd2lkdGg9IjI1NiI+PHJlY3Qgcng9IjYwIiBmaWxsPSIjMDIzNDMwIiBoZWlnaHQ9IjI1NiIgd2lkdGg9IjI1NiIvPjxwYXRoIGQ9Ik0xNzEuMTczIDEwNy41OTFDMTYwLjYzNiA2MS4xMDk3IDEzOC42NzYgNDguNzM1NyAxMzMuMDc0IDM5Ljk4ODZDMTMwLjc2NCAzNi4xMzUzIDEyOC43MTcgMzIuMTI5OSAxMjYuOTQ5IDI4QzEyNi42NTMgMzIuMTI5MiAxMjYuMTA5IDM0LjczMDcgMTIyLjU5OSAzNy44NjJDMTE1LjU1MiA0NC4xNDU0IDg1LjYyMTcgNjguNTM1NCA4My4xMDI4IDEyMS4zNDhDODAuNzU2IDE3MC41OSAxMTkuMzAzIDIwMC45NTMgMTI0LjM5NSAyMDQuMDkyQzEyOC4zMTEgMjA2LjAxOSAxMzMuMDggMjA0LjEzMyAxMzUuNDA3IDIwMi4zNjRDMTUzLjk4OCAxODkuNjEyIDE3OS4zNzYgMTU1LjYxNCAxNzEuMTkzIDEwNy41OTEiIGZpbGw9IiMxMEFBNTAiLz48cGF0aCBkPSJNMTI4LjU0NSAxNzcuODcxQzEyNy41NzUgMTkwLjA1OSAxMjYuODggMTk3LjE0MSAxMjQuNDE2IDIwNC4xMDZDMTI0LjQxNiAyMDQuMTA2IDEyNi4wMzMgMjE1LjcwOSAxMjcuMTY5IDIyOEgxMzEuMTg4QzEzMi4xNDcgMjE5LjM0NSAxMzMuNjEgMjEwLjc1MyAxMzUuNTcyIDIwMi4yNjhDMTMwLjM2OSAxOTkuNzA4IDEyOC43NDUgMTg4LjU2NiAxMjguNTQ1IDE3Ny44NzFaIiBmaWxsPSIjQjhDNEMyIi8+PHBhdGggZD0iTTEzNS41NjUgMjAyLjI3NUMxMzAuMzA3IDE5OS44NDYgMTI4Ljc4NiAxODguNDY5IDEyOC41NTIgMTc3Ljg3MUMxMjkuODUyIDE2MC4zODggMTMwLjIzMSAxNDIuODQ5IDEyOS42ODggMTI1LjMyNkMxMjkuNDEyIDExNi4xMzIgMTI5LjgxOCA0MC4xNjc2IDEyNy40MjMgMjkuMDQ2MUMxMjkuMDYyIDMyLjgxMjkgMTMwLjk0OSAzNi40NjYyIDEzMy4wNzQgMzkuOTgxOEMxMzguNjc2IDQ4LjczNTggMTYwLjY0MyA2MS4xMDk3IDE3MS4xNzMgMTA3LjU5MUMxNzkuMzc2IDE1NS41MzIgMTU0LjEyNiAxODkuNDQgMTM1LjU2NSAyMDIuMjc1WiIgZmlsbD0iIzEyOTI0RiIvPjwvc3ZnPg==;" parent="1" vertex="1">
          <mxGeometry x="559" y="90" width="110" height="110" as="geometry" />
        </mxCell>
        <mxCell id="YX2rQ0Zm5bxFWOcHUKYA-3" value="DB(MONGODB)" style="text;html=1;align=center;verticalAlign=middle;whiteSpace=wrap;rounded=0;" parent="1" vertex="1">
          <mxGeometry x="568" y="210" width="101" height="30" as="geometry" />
        </mxCell>
        <mxCell id="YX2rQ0Zm5bxFWOcHUKYA-4" value="Front-end(html, css, js)" style="text;html=1;align=center;verticalAlign=middle;whiteSpace=wrap;rounded=0;" parent="1" vertex="1">
          <mxGeometry x="340" y="450" width="130" height="30" as="geometry" />
        </mxCell>
      </root>
    </mxGraphModel>
  </diagram>
</mxfile>
